<?xml version="1.0" encoding="utf-8"?>
<!-- Generator: Adobe Illustrator 19.2.1, SVG Export Plug-In . SVG Version: 6.00 Build 0)  -->
<svg version="1.1" id="layer" xmlns="http://www.w3.org/2000/svg" xmlns:xlink="http://www.w3.org/1999/xlink" x="0px" y="0px"
	 viewBox="0 0 652 652" style="enable-background:new 0 0 652 652;" xml:space="preserve">
<style type="text/css">
	.st0{fill:#94C947;}
	.st1{fill:#00AEEF;}
</style>
<path d="M343.3,271.6h2.5l9.1,23.3h-2.4l-2.8-7.2h-10.6l-2.8,7.2h-2.4L343.3,271.6z M339.8,285.7h9.2l-4.5-12L339.8,285.7z"/>
<g>
	<path d="M359.5,271.6h2.2V286c0,5.4,2.6,7.5,6.8,7.5c4.3,0,6.9-2.1,6.9-7.5v-14.4h2.2v14.9c0,4.8-2.6,8.9-9.1,8.9
		c-6.5,0-9-4.1-9-8.9V271.6z"/>
	<path d="M386.5,287.2c-0.1,4.8,3.4,6.3,7.6,6.3c2.4,0,6.2-1.3,6.2-4.7c0-2.6-2.6-3.7-4.8-4.2l-5.2-1.3c-2.7-0.7-5.3-2-5.3-5.6
		c0-2.3,1.5-6.6,8-6.6c4.6,0,8.7,2.5,8.6,7.3h-2.2c-0.1-3.6-3.1-5.4-6.4-5.4c-3,0-5.8,1.2-5.8,4.6c0,2.2,1.6,3.1,3.5,3.6l5.7,1.4
		c3.3,0.9,6,2.3,6,6.1c0,1.6-0.7,6.7-8.9,6.7c-5.5,0-9.6-2.5-9.3-8.2H386.5z"/>
	<polygon points="406.5,271.6 424.9,271.6 424.9,273.4 416.8,273.4 416.8,294.9 414.6,294.9 414.6,273.4 406.5,273.4 	"/>
	<path d="M430.7,271.6h10.7c3.9,0,7.1,1.9,7.1,6.1c0,2.9-1.5,5.4-4.5,5.9v0.1c3,0.4,3.9,2.5,4.1,5.3c0.1,1.6,0.1,4.8,1.1,6h-2.5
		c-0.6-0.9-0.6-2.6-0.6-3.6c-0.2-3.3-0.5-6.9-4.7-6.7h-8.4v10.4h-2.2V271.6z M432.9,282.6h8.3c2.7,0,5-1.7,5-4.5
		c0-2.8-1.7-4.6-5-4.6h-8.3V282.6z"/>
	<path d="M463.5,271.6h2.5l9.1,23.3h-2.4l-2.8-7.2h-10.6l-2.8,7.2h-2.4L463.5,271.6z M460,285.7h9.2l-4.5-12L460,285.7z"/>
	<polygon points="480.9,271.6 483.1,271.6 483.1,293 496.2,293 496.2,294.9 480.9,294.9 	"/>
	<rect x="502" y="271.6" width="2.2" height="23.3"/>
	<path d="M519.4,271.6h2.5l9.1,23.3h-2.4l-2.8-7.2h-10.6l-2.8,7.2H510L519.4,271.6z M515.9,285.7h9.2l-4.5-12L515.9,285.7z"/>
	<polygon points="536.7,271.6 539.2,271.6 552.8,291.3 552.8,291.3 552.8,271.6 555.1,271.6 555.1,294.9 552.6,294.9 539,275.1 
		538.9,275.1 538.9,294.9 536.7,294.9 	"/>
	<path d="M336.5,310.7h10.7c3.9,0,7.1,1.9,7.1,6.1c0,2.9-1.5,5.4-4.5,5.9v0.1c3,0.4,3.9,2.5,4.1,5.3c0.1,1.6,0.1,4.8,1.1,6h-2.5
		c-0.6-0.9-0.6-2.6-0.6-3.6c-0.2-3.3-0.5-6.9-4.7-6.7h-8.4v10.4h-2.2V310.7z M338.7,321.8h8.3c2.7,0,5-1.7,5-4.5
		c0-2.8-1.7-4.6-5-4.6h-8.3V321.8z"/>
	<polygon points="361.8,310.7 377.9,310.7 377.9,312.6 364,312.6 364,321.1 377,321.1 377,323 364,323 364,332.2 378.1,332.2 
		378.1,334.1 361.8,334.1 	"/>
	<polygon points="384.3,310.7 399.1,310.7 399.1,312.6 386.5,312.6 386.5,321.1 397.7,321.1 397.7,323 386.5,323 386.5,334.1 
		384.3,334.1 	"/>
	<path d="M405.1,310.7h10.7c3.9,0,7.1,1.9,7.1,6.1c0,2.9-1.5,5.4-4.5,5.9v0.1c3,0.4,3.9,2.5,4.1,5.3c0.1,1.6,0.1,4.8,1.1,6H421
		c-0.6-0.9-0.6-2.6-0.6-3.6c-0.2-3.3-0.5-6.9-4.7-6.7h-8.4v10.4h-2.2V310.7z M407.3,321.8h8.3c2.7,0,5-1.7,5-4.5
		c0-2.8-1.7-4.6-5-4.6h-8.3V321.8z"/>
	<rect x="430.5" y="310.7" width="2.2" height="23.3"/>
	<path d="M460.9,334.1h-1.6l-0.3-4.2h-0.1c-1.6,3.3-4.7,4.7-8.1,4.7c-7.3,0-11-5.8-11-12.2c0-6.4,3.7-12.1,11-12.1
		c4.9,0,8.9,2.6,9.7,7.7h-2.2c-0.3-2.7-3.1-5.8-7.5-5.8c-6.2,0-8.8,5.2-8.8,10.3c0,5.1,2.6,10.3,8.8,10.3c5.2,0,8.2-3.6,8.1-8.6H451
		v-1.9h9.9V334.1z"/>
	<polygon points="468.7,310.7 484.8,310.7 484.8,312.6 470.9,312.6 470.9,321.1 483.9,321.1 483.9,323 470.9,323 470.9,332.2 
		485,332.2 485,334.1 468.7,334.1 	"/>
	<path d="M491.2,310.7h10.7c3.9,0,7.1,1.9,7.1,6.1c0,2.9-1.5,5.4-4.5,5.9v0.1c3,0.4,3.9,2.5,4.1,5.3c0.1,1.6,0.1,4.8,1.1,6h-2.5
		c-0.6-0.9-0.6-2.6-0.6-3.6c-0.2-3.3-0.5-6.9-4.7-6.7h-8.4v10.4h-2.2V310.7z M493.4,321.8h8.3c2.7,0,5-1.7,5-4.5
		c0-2.8-1.7-4.6-5-4.6h-8.3V321.8z"/>
	<path d="M524,310.7h2.5l9.1,23.3h-2.4l-2.8-7.2h-10.6l-2.8,7.2h-2.4L524,310.7z M520.5,324.9h9.2l-4.5-12L520.5,324.9z"/>
	<polygon points="536,310.7 554.5,310.7 554.5,312.6 546.4,312.6 546.4,334.1 544.1,334.1 544.1,312.6 536,312.6 	"/>
	<rect x="560.3" y="310.7" width="2.2" height="23.3"/>
	<path d="M580.6,310.3c7.3,0,11,5.8,11,12.1c0,6.4-3.7,12.2-11,12.2c-7.3,0-11-5.8-11-12.2C569.6,316,573.2,310.3,580.6,310.3
		 M580.6,332.7c6.1,0,8.8-5.2,8.8-10.3c0-5.1-2.6-10.2-8.8-10.2c-6.2,0-8.8,5.2-8.8,10.2C571.8,327.5,574.4,332.7,580.6,332.7"/>
	<polygon points="598.5,310.7 601,310.7 614.6,330.5 614.7,330.5 614.7,310.7 616.9,310.7 616.9,334.1 614.4,334.1 600.8,314.3 
		600.8,314.3 600.8,334.1 598.5,334.1 	"/>
	<path d="M353.5,357c-0.8-3.6-3.8-5.7-7.2-5.7c-6.2,0-8.8,5.2-8.8,10.3s2.6,10.3,8.8,10.3c4.3,0,7.1-3.3,7.5-7.5h2.2
		c-0.6,5.7-4.2,9.4-9.7,9.4c-7.3,0-11-5.8-11-12.1s3.7-12.2,11-12.2c4.4,0,8.8,2.7,9.4,7.5H353.5z"/>
	<path d="M372.7,349.5c7.3,0,11,5.8,11,12.1c0,6.4-3.7,12.2-11,12.2c-7.3,0-11-5.8-11-12.2C361.7,355.2,365.4,349.5,372.7,349.5
		 M372.7,371.9c6.1,0,8.8-5.2,8.8-10.3c0-5.1-2.6-10.2-8.8-10.2c-6.2,0-8.8,5.2-8.8,10.2C364,366.7,366.6,371.9,372.7,371.9"/>
	<path d="M390.5,349.9h2.2v14.4c0,5.4,2.6,7.5,6.8,7.5c4.3,0,6.9-2.1,6.9-7.5v-14.4h2.2v14.9c0,4.8-2.6,8.9-9.1,8.9
		c-6.5,0-9-4.1-9-8.9V349.9z"/>
	<polygon points="416.6,349.9 419.1,349.9 432.7,369.7 432.7,369.7 432.7,349.9 434.9,349.9 434.9,373.3 432.5,373.3 418.9,353.5 
		418.8,353.5 418.8,373.3 416.6,373.3 	"/>
	<path d="M460.1,357c-0.8-3.6-3.8-5.7-7.2-5.7c-6.2,0-8.8,5.2-8.8,10.3s2.6,10.3,8.8,10.3c4.3,0,7.1-3.3,7.5-7.5h2.2
		c-0.6,5.7-4.2,9.4-9.7,9.4c-7.3,0-11-5.8-11-12.1s3.7-12.2,11-12.2c4.4,0,8.8,2.7,9.4,7.5H460.1z"/>
	<rect x="469.6" y="349.9" width="2.2" height="23.3"/>
	<polygon points="480.1,349.9 482.3,349.9 482.3,371.4 495.3,371.4 495.3,373.3 480.1,373.3 	"/>
	<polygon class="st0" points="620,401.4 620,389 25.1,389 20,401.4 	"/>
	<polygon class="st1" points="620,255.3 620,242.9 84.4,242.9 79.4,255.3 	"/>
	<path d="M81.9,271.1l40.5,102.6h-6.8l-12.9-32.9H53.6l-13.1,32.9h-6.8L75,271.1H81.9z M100.8,335.3l-22-58.1h-0.3l-22.9,58.1H100.8
		z"/>
	<path d="M129.8,271.1h42.8c18,0,32.5,6.6,32.5,26.4c0,13.8-8.3,24-22,26.3v0.3c15.2,1.7,19,11.4,20,22c1,10.6-0.7,22.1,3.4,27.6h-7
		c-3.9-7-1.6-18.8-2.7-28.7c-1.3-9.9-6.2-18-24.1-18h-36.5v46.7h-6.3V271.1z M172.6,321.5c14.9,0,26.2-7,26.2-23.6
		c0-15.5-12.4-21.4-26.2-21.4h-36.5v45H172.6z"/>
	<path d="M300.2,301.7c-2.7-17.2-17.8-27.6-34.9-27.6c-26.9,0-42.5,22-42.5,48.3c0,26.3,15.7,48.3,42.5,48.3
		c20,0,35.5-17.8,36.6-36.9h6.3c-2.3,24.4-20.4,42.4-43,42.4c-30.8,0-48.9-23.7-48.9-53.7c0-30,18.1-53.8,48.9-53.8
		c36.4,0,41.1,31.6,41.3,33.1H300.2z"/>
</g>
</svg>
